<svg width="37" height="30" viewBox="0 0 37 30" fill="none" xmlns="http://www.w3.org/2000/svg">
<path fill-rule="evenodd" clip-rule="evenodd" d="M31.3907 0.878906L35.1842 6.94922C37.1482 10.0898 35.4063 14.4492 31.7356 14.9414C31.4726 14.9766 31.2096 14.9941 30.9348 14.9941C29.2106 14.9941 27.6792 14.2324 26.6212 13.0547C25.5691 14.2324 24.0376 14.9941 22.3075 14.9941C20.5831 14.9941 19.0459 14.2324 17.9938 13.0547C16.9416 14.2324 15.4103 14.9941 13.6802 14.9941C11.9558 14.9941 10.4186 14.2324 9.36644 13.0547C8.31431 14.2324 6.78282 14.9941 5.05271 14.9941C4.78379 14.9941 4.51499 14.9766 4.25193 14.9414C0.592875 14.4434 -1.14309 10.084 0.815043 6.94922L4.6085 0.878906C4.94749 0.333984 5.54954 0 6.19248 0H29.8067C30.4497 0 31.0517 0.333984 31.3907 0.878906ZM29.2221 16.6523C29.7833 16.7871 30.362 16.875 30.9465 16.875C31.3031 16.875 31.6538 16.8516 32.0104 16.8047C32.3376 16.7637 32.6533 16.6875 32.9689 16.5938V28.125C32.9689 29.1621 32.133 30 31.0985 30H4.91246C3.87779 30 3.04197 29.1621 3.04197 28.125V16.5938C3.35179 16.6816 3.6732 16.7578 4.00059 16.8047C4.34544 16.8516 4.70201 16.875 5.05271 16.875C5.63719 16.875 6.21592 16.7812 6.77696 16.6523V22.5H29.2221V16.6523Z" fill="white"/>
</svg>
