<svg width="27" height="27" viewBox="0 0 27 27" fill="none" xmlns="http://www.w3.org/2000/svg">
<path fill-rule="evenodd" clip-rule="evenodd" d="M10.2856 0C15.5547 0 19.8268 4.44968 19.8268 9.93753C19.8268 15.4254 15.5547 19.8748 10.2856 19.8748C5.01643 19.8748 0.744141 15.4254 0.744141 9.93753C0.744141 4.44968 5.01643 0 10.2856 0ZM3.1295 9.93758C3.1295 14.0475 6.33936 17.3904 10.2855 17.3904C14.2315 17.3904 17.4416 14.0475 17.4416 9.93758C17.4416 5.82767 14.2315 2.4845 10.2855 2.4845C6.33936 2.4845 3.1295 5.82767 3.1295 9.93758Z" fill="#515151"/>
<path fill-rule="evenodd" clip-rule="evenodd" d="M25.4889 22.2592L21.4187 18.0197C20.524 17.0877 18.9812 17.27 18.0784 18.1942C17.2195 19.0734 17.059 20.5052 17.9102 21.3918L22.116 25.7721C23.0479 26.7425 24.559 26.7425 25.4889 25.7721C26.4209 24.8033 26.4208 23.2296 25.4889 22.2592Z" fill="#515151"/>
</svg>
