<svg width="21" height="22" viewBox="0 0 21 22" fill="none" xmlns="http://www.w3.org/2000/svg">
<path fill-rule="evenodd" clip-rule="evenodd" d="M14.1476 2.64H19.2918C20.1363 2.64 20.8273 3.26526 20.8018 4.00632V4.9558C20.8018 5.72 20.1107 6.34526 19.2661 6.34526H19.0359L17.9354 19.9621C17.8586 21.0968 16.7836 22 15.5296 22H6.03476C4.78073 22 3.73142 21.0968 3.62913 19.9621L2.52861 6.36842H2.29821C1.45376 6.36842 0.762695 5.74316 0.762695 4.97894V4.02948C0.762695 3.26526 1.45376 2.64 2.29821 2.64H7.41676L7.80067 1.11157C7.97986 0.463165 8.61958 0 9.36186 0L12.2282 0.0231628C12.9704 0.0231628 13.6358 0.509476 13.7893 1.1579L14.1476 2.64ZM9.36173 1.13474C9.20808 1.13474 9.05457 1.22737 9.02903 1.36632L8.72187 2.64H12.8934L12.5864 1.38947C12.5352 1.25052 12.4072 1.1579 12.2537 1.1579L9.36173 1.13474ZM19.2917 5.21053C19.4197 5.21053 19.5476 5.1179 19.5476 4.97894V4.02948C19.5476 3.91368 19.4452 3.7979 19.2917 3.7979H2.29821C2.17024 3.7979 2.04227 3.89053 2.04227 4.02948V4.97894C2.04227 5.09474 2.1447 5.21053 2.29821 5.21053H19.2917ZM16.7069 19.8926C16.6556 20.4484 16.1438 20.8653 15.5553 20.8653H6.0603C5.44612 20.8653 4.95992 20.4484 4.9087 19.8926L3.80818 6.36842H17.7817L16.7069 19.8926Z" fill="#ED1C24"/>
</svg>
